<?xml version="1.0" encoding="UTF-8"?>
<svg width="980px" height="200px" viewBox="0 0 980 200" version="1.1" xmlns="http://www.w3.org/2000/svg" xmlns:xlink="http://www.w3.org/1999/xlink">
    <!-- Generator: Sketch 41.2 (35397) - http://www.bohemiancoding.com/sketch -->
    <title>github-header</title>
    <desc>Created with Sketch.</desc>
    <defs>
        <linearGradient x1="50%" y1="0%" x2="50%" y2="98.4375%" id="linearGradient-1">
            <stop stop-color="#448AFF" offset="0%"></stop>
            <stop stop-color="#536DFE" offset="100%"></stop>
        </linearGradient>
    </defs>
    <g id="GitHub-Docs" stroke="none" stroke-width="1" fill="none" fill-rule="evenodd">
        <g id="github-header">
            <rect id="background-gradient" fill="url(#linearGradient-1)" x="0" y="0" width="980" height="200"></rect>
            <path d="M361,49 L361,150.460938 L391.65625,150.460938 C422.59375,150.460938 440.171875,132.109375 440.171875,99.6953125 C440.171875,67.3515625 422.59375,49 391.65625,49 L361,49 Z M364.585938,52.3046875 L391.585938,52.3046875 C420.484375,52.3046875 436.65625,69.3203125 436.65625,99.6953125 C436.65625,130.140625 420.484375,147.15625 391.585938,147.15625 L364.585938,147.15625 L364.585938,52.3046875 Z M513.4375,74.8046875 L509.992188,74.8046875 L509.992188,120.4375 C509.992188,137.453125 498.039062,148.28125 483.132812,148.28125 C468.648438,148.28125 458.59375,139.210938 458.59375,123.601562 L458.59375,74.8046875 L455.148438,74.8046875 L455.148438,124.09375 C455.148438,140.96875 466.46875,151.585938 482.78125,151.585938 C495.578125,151.585938 507.039062,143.359375 510.0625,132.8125 L510.203125,132.8125 L510.203125,150.460938 L513.4375,150.460938 L513.4375,74.8046875 Z M528.34375,93.6484375 C528.34375,103.351562 534.742188,108.625 547.398438,111.648438 L559.28125,114.390625 C572.710938,117.554688 578.054688,122.40625 578.054688,131.054688 C578.054688,141.460938 567.296875,148.351562 554.007812,148.351562 C540.367188,148.351562 530.242188,139.703125 529.328125,129.085938 L525.8125,129.085938 C526.585938,141.390625 537.835938,151.585938 554.078125,151.585938 C570.039062,151.585938 581.570312,143.21875 581.570312,130.84375 C581.570312,120.578125 575.3125,114.882812 560.335938,111.226562 L548.59375,108.414062 C537.132812,105.742188 531.789062,101.734375 531.789062,93.578125 C531.789062,83.6640625 542.054688,76.9140625 553.796875,76.9140625 C567.367188,76.9140625 575.734375,85.2109375 577,96.7421875 L580.375,96.7421875 C579.039062,82.609375 568.984375,73.6796875 553.796875,73.6796875 C539.804688,73.6796875 528.34375,81.8359375 528.34375,93.6484375 Z M598.164062,54.5546875 L598.164062,74.8046875 L586.914062,74.8046875 L586.914062,77.96875 L598.164062,77.96875 L598.164062,134.007812 C598.164062,145.820312 602.664062,150.53125 612.859375,150.53125 C613.070312,150.53125 618.132812,150.460938 618.273438,150.460938 L618.273438,147.226562 C618.203125,147.226562 613.140625,147.296875 613.070312,147.296875 C605.054688,147.296875 601.609375,143.570312 601.609375,133.9375 L601.609375,77.96875 L616.9375,77.96875 L616.9375,74.8046875 L601.609375,74.8046875 L601.609375,54.5546875 L598.164062,54.5546875 Z" id="Dust" fill="#FFFFFF"></path>
        </g>
    </g>
</svg>